<svg xmlns="http://www.w3.org/2000/svg" xmlns:xlink="http://www.w3.org/1999/xlink" viewBox="0 0 558 558"><defs><style>.cls-1{isolation:isolate;}.cls-2{fill:#27b2f4;}.cls-3{fill:url(#Degradado_sin_nombre_207);}.cls-4{mix-blend-mode:overlay;fill:url(#radial-gradient);}.cls-5{fill:url(#Degradado_sin_nombre_207-2);}.cls-6{fill:url(#Degradado_sin_nombre_207-3);}.cls-10,.cls-11,.cls-7,.cls-8{fill:#fff;}.cls-8{font-size:54.67px;}.cls-10,.cls-8{font-family:Montserrat-Bold, Montserrat;font-weight:700;}.cls-9{fill:url(#Degradado_sin_nombre_207-4);}.cls-10{font-size:32.77px;}.cls-11{font-size:176.49px;font-family:Montserrat-ExtraBold, Montserrat;font-weight:800;letter-spacing:-0.04em;}</style><linearGradient id="Degradado_sin_nombre_207" x1="-370.78" y1="-92.01" x2="-370.78" y2="382.19" gradientTransform="translate(631.81 88.42) rotate(-6)" gradientUnits="userSpaceOnUse"><stop offset="0" stop-color="#27b2f4"/><stop offset="0.88" stop-color="#0066c0"/></linearGradient><radialGradient id="radial-gradient" cx="-370.79" cy="152.68" r="192.36" gradientTransform="translate(631.81 88.42) rotate(-6)" gradientUnits="userSpaceOnUse"><stop offset="0.74" stop-color="#013538"/><stop offset="0.91" stop-color="#00292c"/><stop offset="1" stop-color="#002123"/></radialGradient><linearGradient id="Degradado_sin_nombre_207-2" x1="-505.85" y1="48.95" x2="-235.73" y2="48.95" xlink:href="#Degradado_sin_nombre_207"/><linearGradient id="Degradado_sin_nombre_207-3" x1="-505.85" y1="260.87" x2="-235.73" y2="260.87" xlink:href="#Degradado_sin_nombre_207"/><linearGradient id="Degradado_sin_nombre_207-4" x1="-617.09" y1="150.15" x2="-133.68" y2="150.15" xlink:href="#Degradado_sin_nombre_207"/></defs><g class="cls-1"><g id="Capa_2" data-name="Capa 2"><g id="Capa_2-2" data-name="Capa 2"><path class="cls-2" d="M556.45,249.84c16.1,153.25-95.07,290.51-248.3,306.61S17.65,461.38,1.55,308.14,96.61,17.65,249.85,1.55,540.36,96.62,556.45,249.84Z"/><path class="cls-3" d="M539.48,251.63c15.11,143.86-89.26,272.73-233.12,287.84S33.64,450.22,18.53,306.36,107.77,33.64,251.63,18.53,524.36,107.78,539.48,251.63Z"/><path class="cls-4" d="M470.3,258.9c11.1,105.66-65.54,200.3-171.2,211.4S98.8,404.76,87.69,299.09,153.24,98.8,258.9,87.7,459.2,153.25,470.3,258.9Z"/><path class="cls-5" d="M164.84,218.21A129.36,129.36,0,0,1,378,195.81l6.72-.71a134.91,134.91,0,0,0-226.63,23.81Z"/><path class="cls-6" d="M387.47,349.39a129.28,129.28,0,0,1-199.94,21l-7.18.76a134.9,134.9,0,0,0,214.3-22.52Z"/><path class="cls-7" d="M279.42,123.84a8.74,8.74,0,1,1-9.61-7.78A8.75,8.75,0,0,1,279.42,123.84Z"/><path class="cls-7" d="M317.57,119.83a8.74,8.74,0,1,1-9.61-7.77A8.74,8.74,0,0,1,317.57,119.83Z"/><path class="cls-7" d="M241.27,127.85a8.74,8.74,0,1,1-9.61-7.78A8.75,8.75,0,0,1,241.27,127.85Z"/><path class="cls-7" d="M311.79,432a8.74,8.74,0,1,1-9.6-7.78A8.73,8.73,0,0,1,311.79,432Z"/><path class="cls-7" d="M349.94,428a8.74,8.74,0,1,1-9.6-7.78A8.75,8.75,0,0,1,349.94,428Z"/><path class="cls-7" d="M273.64,436a8.74,8.74,0,1,1-9.6-7.78A8.73,8.73,0,0,1,273.64,436Z"/><text class="cls-8" transform="matrix(0.73, -0.68, 0.68, 0.73, 109.49, 143.32)">G</text><text class="cls-8" transform="matrix(0.86, -0.51, 0.51, 0.86, 146.61, 110.65)">A</text><text class="cls-8" transform="translate(189.58 86.67) rotate(-18.72)">R</text><text class="cls-8" transform="translate(236.06 72.4) rotate(-6.71)">A</text><text class="cls-8" transform="translate(285.05 67.92) rotate(5.66)">N</text><text class="cls-8" transform="translate(336.5 74.9) rotate(17.36)">T</text><text class="cls-8" transform="matrix(0.9, 0.45, -0.45, 0.9, 376.77, 89.14)">Í</text><text class="cls-8" transform="matrix(0.81, 0.59, -0.59, 0.81, 404.17, 103.21)">A</text><path class="cls-9" d="M473.43,228.31l32.2-59.73a1,1,0,0,0-1-1.5L429.76,175a1,1,0,0,0-.8.53L416.5,198.59a1,1,0,0,1-1.69.15c-11-13.47-27.68-20.73-46.62-18.74-15.69,1.64-28.56,9.15-37.06,20.42a1,1,0,0,1-1.38.22c-14.15-9.73-31.39-14-49.57-12.11-21.86,2.3-40.57,13.09-52.67,30.4v0a1,1,0,0,1-1.56.16h0C210.52,204.69,190,198,168,200.32a73.58,73.58,0,0,0-40.81,17.26,1,1,0,0,1-1.67-.68L124.6,208a1,1,0,0,0-1.12-.91L25.89,217.38a1,1,0,0,0-.9,1.12l7.08,67.4a1,1,0,0,0,1.12.9l21.28-2.23a1,1,0,0,1,1.12.91l7.95,75.72.41,0,.4,0,.41,0h0l2.34,22.29a1,1,0,0,0,1.12.91l73-7.67a1,1,0,0,0,.91-1.12l-.94-8.87a1,1,0,0,1,1.5-1,73.59,73.59,0,0,0,43.51,8.4c21.93-2.3,40.66-13.11,52.74-30.42h0a1,1,0,0,1,1.56-.17l0,0c15.44,14.41,36,21.09,57.83,18.79A74.84,74.84,0,0,0,332.72,350a1,1,0,0,1,1.46,1.33l-2,3.64a1,1,0,0,0,1,1.49l74.87-7.86a1,1,0,0,0,.79-.53l12.46-23.12a1,1,0,0,1,1.7-.15c11,13.48,27.68,20.74,46.62,18.75,31.2-3.28,51.32-29.7,47.84-62.84-2.84-27-20.13-46.44-43.35-50.88A1,1,0,0,1,473.43,228.31Z"/><text class="cls-10" transform="translate(103.92 443.87) rotate(41.88)">L</text><text class="cls-10" transform="translate(121.15 459.23) rotate(36.15)">O</text><text class="cls-10" transform="translate(143 474.89) rotate(30.23)">R</text><text class="cls-10" transform="translate(164.21 487.02) rotate(24.83)">E</text><text class="cls-10" transform="translate(184.53 496.46) rotate(18.69)">M</text><text class="cls-10" transform="translate(213.39 505.66) rotate(13.71)"> </text><text class="cls-10" transform="translate(225.06 508.45) rotate(10.8)">I</text><text class="cls-10" transform="matrix(0.99, 0.11, -0.11, 0.99, 238.05, 511.02)">P</text><text class="cls-10" transform="matrix(1, 0.02, -0.02, 1, 262.04, 513.52)">S</text><text class="cls-10" transform="translate(283.4 513.91) rotate(-4.22)">U</text><text class="cls-10" transform="translate(309.33 511.94) rotate(-10.67)">M</text><text class="cls-10" transform="matrix(0.96, -0.27, 0.27, 0.96, 339, 505.81)"> </text><text class="cls-10" transform="translate(350.97 502.62) rotate(-20.13)">D</text><text class="cls-10" transform="translate(376.03 493.24) rotate(-26.39)">O</text><text class="cls-10" transform="matrix(0.85, -0.53, 0.53, 0.85, 399.91, 481.04)">L</text><text class="cls-10" transform="translate(416.96 470.44) rotate(-37.29)">O</text><text class="cls-10" transform="translate(438.23 453.94) rotate(-43.23)">R</text><text class="cls-10" transform="translate(455.57 437.19) rotate(-47.42)"> </text><text class="cls-10" transform="translate(463.84 428.27) rotate(-51.23)">S</text><text class="cls-10" transform="matrix(0.57, -0.82, 0.82, 0.57, 476.82, 411.72)">I</text><text class="cls-10" transform="matrix(0.52, -0.86, 0.86, 0.52, 484.31, 401)">T</text><text class="cls-10" transform="matrix(0.46, -0.89, 0.89, 0.46, 494.51, 383.58)"> </text><text class="cls-11" transform="matrix(0.99, -0.1, 0.1, 0.99, 58.54, 362.9)">100%</text></g></g></g></svg>