<svg xmlns="http://www.w3.org/2000/svg" viewBox="0 0 69.53 70.86"><defs><style>.cls-1{fill:#fff;}</style></defs><g id="Capa_2" data-name="Capa 2"><g id="Capa_2-2" data-name="Capa 2"><path class="cls-1" d="M20.93,70.86a6.39,6.39,0,1,1,0-12.77,6.39,6.39,0,1,1,0,12.77Zm35.48,0A6.35,6.35,0,1,1,60.93,69,6.17,6.17,0,0,1,56.41,70.86ZM16.32,12.33l9.75,20.22H51.62L62.7,12.33ZM13.66,7H65.9A3.38,3.38,0,0,1,69,8.87a3.51,3.51,0,0,1,0,3.72L57,34.14a7.94,7.94,0,0,1-2.53,2.71,6.1,6.1,0,0,1-3.42,1H24.21l-5,9.22H62.79v5.32H20c-2.48,0-4.27-.82-5.36-2.48s-1.08-3.52,0-5.59L20.4,33.88,6.92,5.32H0V0H10.38ZM26.07,32.55h0Z"/></g></g></svg>