<svg xmlns="http://www.w3.org/2000/svg" viewBox="0 0 93.22 95"><defs><style>.cls-1{fill:#fff;}</style></defs><title>icono 1</title><g id="Capa_2" data-name="Capa 2"><g id="Capa_2-2" data-name="Capa 2"><path class="cls-1" d="M28.06,95a8.56,8.56,0,1,1,0-17.12,8.56,8.56,0,1,1,0,17.12Zm47.56,0a8.54,8.54,0,1,1,6.06-2.5A8.26,8.26,0,0,1,75.62,95ZM21.88,16.53,35,43.64H69.2L84.06,16.53ZM18.31,9.39h70a4.55,4.55,0,0,1,4.16,2.5,4.72,4.72,0,0,1,0,5l-16,28.9a10.62,10.62,0,0,1-3.39,3.62,8.18,8.18,0,0,1-4.58,1.37h-36L25.8,63.13H84.18v7.14H26.87q-5,0-7.19-3.33t.06-7.49l7.61-14L9.27,7.13H0V0H13.91ZM35,43.64h0Z"/></g></g></svg>