<svg xmlns="http://www.w3.org/2000/svg" viewBox="0 0 94.36 84.51"><defs><style>.cls-1{fill:#fff;}</style></defs><title>icono 3</title><g id="Capa_2" data-name="Capa 2"><g id="Capa_2-2" data-name="Capa 2"><path class="cls-1" d="M89.44,37.68V77.46a7.23,7.23,0,0,1-7,7.05H11.86a6.76,6.76,0,0,1-4.93-2.12,6.75,6.75,0,0,1-2.11-4.93V37.68A13.28,13.28,0,0,1,.48,30.75a14.66,14.66,0,0,1,.23-8.22L5.76,6.69A9.2,9.2,0,0,1,9,1.76,8.8,8.8,0,0,1,14.44,0H79.35A9.45,9.45,0,0,1,85.1,1.82a9.25,9.25,0,0,1,3.4,4.87l5.17,15.84a14.3,14.3,0,0,1,.17,8.22A13.65,13.65,0,0,1,89.44,37.68ZM57.75,34a8.05,8.05,0,0,0,5.75-2.23,5.88,5.88,0,0,0,1.88-5.4L62.45,7H50.71V26.41a7.89,7.89,0,0,0,2,5.34A6.44,6.44,0,0,0,57.75,34Zm-22,0a7.74,7.74,0,0,0,5.58-2.23,7.29,7.29,0,0,0,2.29-5.4V7H31.93L29,26.41a6.11,6.11,0,0,0,1.64,5.34A6.78,6.78,0,0,0,35.8,34ZM14.44,34a6.86,6.86,0,0,0,4.87-1.94,7.68,7.68,0,0,0,2.41-4.75L24.77,7H13L7.63,24.18a7.43,7.43,0,0,0,.94,6.75A6.73,6.73,0,0,0,14.44,34Zm65.38,0A6.88,6.88,0,0,0,85.74,31a7.37,7.37,0,0,0,1-6.81L81.34,7H69.61l3,20.31a7.62,7.62,0,0,0,2.4,4.75A6.74,6.74,0,0,0,79.82,34Zm-68,43.42H82.4V41c.08.08-.18.12-.76.12H79.82a13.06,13.06,0,0,1-5.58-1.23A18.68,18.68,0,0,1,69,36a13.19,13.19,0,0,1-4.7,3.7,14.18,14.18,0,0,1-6.22,1.35,16.32,16.32,0,0,1-6-1,14.46,14.46,0,0,1-4.87-3.34A11.4,11.4,0,0,1,42.73,40a15.77,15.77,0,0,1-6.11,1.12,15.35,15.35,0,0,1-6.45-1.29A13.11,13.11,0,0,1,25.36,36a24.5,24.5,0,0,1-5.52,3.76,12.43,12.43,0,0,1-5.4,1.29H12.86a2.64,2.64,0,0,1-1-.12Zm70.54,0h0Z"/></g></g></svg>