<svg xmlns="http://www.w3.org/2000/svg" viewBox="0 0 93 88.35"><defs><style>.cls-1{fill:#fff;}</style></defs><title>icono 4</title><g id="Capa_2" data-name="Capa 2"><g id="Capa_2-2" data-name="Capa 2"><path class="cls-1" d="M7,70.1V81.37H86V70.1ZM7,18.6H21.51A9.62,9.62,0,0,1,20.58,16,12.86,12.86,0,0,1,24.06,3.84,12.53,12.53,0,0,1,33.25,0a12.68,12.68,0,0,1,6.62,1.8,13.82,13.82,0,0,1,4.77,4.59l2,3,1.86-3a14.48,14.48,0,0,1,4.76-4.65A12,12,0,0,1,59.52,0a12.87,12.87,0,0,1,9.41,3.78,12.61,12.61,0,0,1,3.84,9.36,11.66,11.66,0,0,1-.29,2.55,24.36,24.36,0,0,1-.87,2.91H86a7.14,7.14,0,0,1,7,7v55.8a7.14,7.14,0,0,1-7,7H7a6.71,6.71,0,0,1-4.88-2.09A6.73,6.73,0,0,1,0,81.37V25.57a6.71,6.71,0,0,1,2.09-4.88A6.71,6.71,0,0,1,7,18.6ZM7,57.66H86V25.57H57.08L68.7,41.73l-5.58,4.19L46.5,22.9l-16.62,23L24.3,41.73,35.92,25.57H7ZM33.36,19.3a5.93,5.93,0,0,0,4.36-1.8,6,6,0,0,0,1.8-4.36A6.16,6.16,0,0,0,29,8.78a5.93,5.93,0,0,0-1.8,4.36,6.15,6.15,0,0,0,6.16,6.16Zm26.16,0A6.07,6.07,0,0,0,64,17.5a5.94,5.94,0,0,0,1.81-4.36A5.9,5.9,0,0,0,64,8.78,6.08,6.08,0,0,0,59.52,7a5.81,5.81,0,0,0-4.24,1.81,5.9,5.9,0,0,0-1.81,4.36,5.94,5.94,0,0,0,1.81,4.36A5.8,5.8,0,0,0,59.52,19.3Z"/></g></g></svg>