<svg xmlns="http://www.w3.org/2000/svg" viewBox="0 0 102.61 102.61"><defs><style>.cls-1{fill:#3a66be;}.cls-2{fill:#fff;}</style></defs><title>EMAIL</title><g id="Capa_2" data-name="Capa 2"><g id="Capa_2-2" data-name="Capa 2"><circle class="cls-1" cx="51.31" cy="51.31" r="51.31"/><path class="cls-2" d="M23.51,28.29,45.3,53a6.52,6.52,0,0,0,9.8,0L76.51,28.72a2.12,2.12,0,0,1,.61-.48,7.34,7.34,0,0,0-3-.63H26.24a7.42,7.42,0,0,0-2.84.57Z"/><path class="cls-2" d="M80.42,31.08a2.05,2.05,0,0,1-.42.71L58.59,56.09a11.17,11.17,0,0,1-16.77,0L20,31.36l-.11-.16A7.41,7.41,0,0,0,18.84,35V68.49a7.4,7.4,0,0,0,7.4,7.4H74.16a7.4,7.4,0,0,0,7.4-7.4V35A7.35,7.35,0,0,0,80.42,31.08Z"/></g></g></svg>