<svg xmlns="http://www.w3.org/2000/svg" viewBox="0 0 101.12 101.12"><defs><style>.cls-1{fill:#3a66be;}.cls-2{fill:#fff;}</style></defs><title>FACEBOOK</title><g id="Capa_2" data-name="Capa 2"><g id="Capa_2-2" data-name="Capa 2"><path class="cls-1" d="M101.12,50.56A50.56,50.56,0,1,0,42.66,100.5V65.17H29.82V50.56H42.66V39.42c0-12.67,7.55-19.67,19.1-19.67a77.42,77.42,0,0,1,11.31,1V33.18H66.7c-6.28,0-8.24,3.9-8.24,7.89v9.49h14L70.24,65.17H58.46V100.5A50.57,50.57,0,0,0,101.12,50.56Z"/><path class="cls-2" d="M70.24,65.17l2.24-14.61h-14V41.07c0-4,2-7.89,8.24-7.89h6.37V20.74a77.42,77.42,0,0,0-11.31-1c-11.55,0-19.1,7-19.1,19.67V50.56H29.82V65.17H42.66V100.5a50.64,50.64,0,0,0,15.8,0V65.17Z"/></g></g></svg>