<svg xmlns="http://www.w3.org/2000/svg" viewBox="0 0 102.96 102.96"><defs><style>.cls-1{fill:#3a66be;}.cls-2{fill:#fff;}</style></defs><title>TELEGRAM</title><g id="Capa_2" data-name="Capa 2"><g id="Capa_2-2" data-name="Capa 2"><circle class="cls-1" cx="51.48" cy="51.48" r="51.48"/><path class="cls-2" d="M77.11,29.55a1.36,1.36,0,0,0-.92-1,4.76,4.76,0,0,0-2.5.18s-55.64,20-58.82,22.21c-.69.48-.92.75-1,1.08A1.86,1.86,0,0,0,15,54.28L29.34,59a1.58,1.58,0,0,0,.73,0c3.26-2.06,32.82-20.73,34.53-21.35.27-.08.47,0,.41.19C64.33,40.15,38.66,63,38.66,63a1.21,1.21,0,0,0-.16.26l0,0L37.12,77.44s-.56,4.36,3.8,0c3.08-3.08,6-5.65,7.54-6.9,4.93,3.4,10.24,7.17,12.53,9.14a4,4,0,0,0,2.9,1.12c2.18-.08,2.78-2.47,2.78-2.47S76.81,37.52,77.15,32.06c0-.54.08-.88.08-1.25A4.55,4.55,0,0,0,77.11,29.55Z"/></g></g></svg>