<svg xmlns="http://www.w3.org/2000/svg" viewBox="0 0 48.13 38.5"><defs><style>.cls-1{fill:#0266c1;}</style></defs><g id="Capa_2" data-name="Capa 2"><g id="Capa_2-2" data-name="Capa 2"><path class="cls-1" d="M3.61,38.5a3.48,3.48,0,0,1-2.53-1.08A3.46,3.46,0,0,1,0,34.89V3.61A3.48,3.48,0,0,1,1.08,1.08,3.48,3.48,0,0,1,3.61,0H44.52a3.48,3.48,0,0,1,2.53,1.08,3.48,3.48,0,0,1,1.08,2.53V34.89a3.69,3.69,0,0,1-3.61,3.61ZM24.07,20.33,3.61,6.92v28H44.52v-28Zm0-3.6L44.28,3.61H3.91ZM3.61,6.92v0Z"/></g></g></svg>